# xmcd
#
# Track frame offsets: 
#        150
#        21860
#        44655
#        66700
#        96204
#        119362
#        140015
#        158947
#        178667
#        202720
#
# Disc length: 3023 seconds
#
# Revision: 0
# Processed by: cddbd v1.5.2PL0 Copyright (c) Steve Scherf et al.
# Submitted via: ExactAudioCopy v1.0b3
#
DISCID=930bcd0a
DTITLE=Jon-Mykal - It's Not About Me
DYEAR=1999
DGENRE=dts es
TTITLE0=Please
TTITLE1=Wait For Love
TTITLE2=Do Some Thangs
TTITLE3=So Good
TTITLE4=Smile
TTITLE5=You'll Like It
TTITLE6=Do You Wanna? (Freaky)
TTITLE7=All Night Long
TTITLE8=What You Feel For Me
TTITLE9=I'll Give You Forever
EXTD=
EXTT0=
EXTT1=
EXTT2=
EXTT3=
EXTT4=
EXTT5=
EXTT6=
EXTT7=
EXTT8=
EXTT9=
PLAYORDER=
